<svg id="pantry-icon" enable-background="new 0 0 512 512" height="512" viewBox="0 0 512 512" width="512" xmlns="http://www.w3.org/2000/svg"><g><g><path fill="black" d="m28.964 152.75v21.507c0 4.142 3.358 7.5 7.5 7.5s7.5-3.358 7.5-7.5v-21.507c0-4.142-3.358-7.5-7.5-7.5s-7.5 3.357-7.5 7.5z"/><path fill="black" d="m36.464 276.989c4.142 0 7.5-3.358 7.5-7.5v-21.507c0-4.142-3.358-7.5-7.5-7.5s-7.5 3.358-7.5 7.5v21.507c0 4.142 3.358 7.5 7.5 7.5z"/><path fill="black" d="m494.522 271.137h-20.115c.723-2.152 1.158-4.418 1.274-6.744h8.462c9.754 0 17.69-7.936 17.69-17.69v-8.879c0-9.754-7.936-17.69-17.69-17.69h-8.43v-1.412c0-5.333-4.339-9.673-9.673-9.673h-43.284c-5.333 0-9.673 4.339-9.673 9.673v44.417c0 2.764.453 5.459 1.305 7.997h-13.011v-119.032c0-9.155-7.449-16.604-16.604-16.604h-187.186v-26.167c0-4.142-3.358-7.5-7.5-7.5s-7.5 3.358-7.5 7.5v98.86h-167.587v-155.866c0-3.541 2.881-6.422 6.422-6.422h154.744c3.541 0 6.421 2.881 6.421 6.422v21.506c0 4.142 3.358 7.5 7.5 7.5s7.5-3.358 7.5-7.5v-21.506c0-11.812-9.609-21.422-21.421-21.422h-154.744c-11.812 0-21.422 9.61-21.422 21.422v407.346c0 11.812 9.61 21.422 21.422 21.422h168.665c.182 0 .362-.007.54-.02h292.856c10.118 0 18.35-8.231 18.35-18.35v-33.151c0-4.142-3.358-7.5-7.5-7.5s-7.5 3.358-7.5 7.5v33.151c0 1.847-1.502 3.35-3.35 3.35h-285.896v-148.491h289.246v76.834c0 4.142 3.358 7.5 7.5 7.5s7.5-3.358 7.5-7.5v-78.438c5.997-2.773 10.167-8.846 10.167-15.875v-11.491c0-9.636-7.841-17.477-17.478-17.477zm-18.81-36.002h8.43c1.483 0 2.69 1.207 2.69 2.69v8.879c0 1.483-1.207 2.69-2.69 2.69h-8.43zm-293.125 230.96h-161.165c-3.541 0-6.422-2.881-6.422-6.422v-236.48h167.587zm245.496-242.045h32.63v39.09c0 3.163-1.474 6.101-3.932 7.997h-24.767c-2.458-1.896-3.931-4.834-3.931-7.997zm-230.496-73.55h187.186c.884 0 1.604.72 1.604 1.604v119.033h-188.79zm299.413 149.606c0 1.367-1.112 2.479-2.478 2.479h-296.935v-16.447h296.935c1.366 0 2.478 1.112 2.478 2.478z"/><path fill="black" d="m322.007 168.375h-93.536c-6.355 0-11.525 5.17-11.525 11.525v61.2c0 6.355 5.17 11.525 11.525 11.525h93.536c6.355 0 11.525-5.17 11.525-11.525v-61.2c.001-6.355-5.17-11.525-11.525-11.525zm-3.474 69.251h-86.586v-54.251h86.586z"/><circle fill="black" cx="361.199" cy="183.542" r="7.667"/><circle fill="black" cx="361.199" cy="214.259" r="7.667"/></g></g></svg>