<svg id="profile-icon" enable-background="new 0 0 512 512" height="512" viewBox="0 0 512 512" width="512" xmlns="http://www.w3.org/2000/svg">
    <path fill="currentColor" d="m390.6 282c-4.237 0-8.113-2.769-9.47-6.786-1.353-4.005.013-8.573 3.379-11.145 3.234-2.471 7.738-2.712 11.23-.637 3.579 2.126 5.492 6.448 4.661 10.528-.939 4.609-5.084 8.04-9.8 8.04z"/>
    <path fill="currentColor" d="m181.708 231.464c-5.522 0-10-4.477-10-10v-12.556c0-5.523 4.478-10 10-10 5.523 0 10 4.477 10 10v12.556c0 5.523-4.478 10-10 10z"/>
    <path fill="currentColor" d="m255.101 231.464c-5.523 0-10-4.477-10-10v-12.556c0-5.523 4.477-10 10-10 5.522 0 10 4.477 10 10v12.556c0 5.523-4.478 10-10 10z"/>
    <path fill="currentColor" d="m218.422 273.614c-7.937 0-15.338-4.271-19.316-11.145-2.767-4.78-1.134-10.897 3.646-13.664 4.781-2.768 10.898-1.133 13.664 3.646.158.272.769 1.163 2.006 1.163s1.848-.889 2.005-1.161c2.766-4.781 8.884-6.414 13.663-3.649 4.781 2.766 6.415 8.883 3.65 13.664-3.978 6.875-11.38 11.146-19.318 11.146z"/>
    <path fill="currentColor" d="m448.691 0h-382.014c-16.798 0-30.464 13.665-30.464 30.463v451.074c0 16.797 13.666 30.463 30.464 30.463h378.647c16.797 0 30.463-13.665 30.463-30.463v-454.441c0-14.941-12.155-27.096-27.096-27.096zm-82.238 61.643h-27.5v-27.5l13.75 13.75zm89.334 419.894c0 5.769-4.693 10.463-10.463 10.463h-46.58c1.198-3.264 1.851-6.789 1.851-10.463v-156.267c0-5.523-4.478-10-10-10s-10 4.477-10 10v156.268c0 5.769-4.693 10.463-10.463 10.463h-303.455c-5.77 0-10.464-4.694-10.464-10.463v-451.075c0-5.769 4.694-10.463 10.464-10.463h252.276v51.643c0 5.523 4.478 10 10 10h51.643v139.821c0 5.523 4.478 10 10 10s10-4.477 10-10v-149.821c0-2.61-1.058-5.237-2.929-7.071l-44.571-44.572h95.596c3.912 0 7.096 3.183 7.096 7.096v454.441z"/>
    <path fill="currentColor" d="m218.404 53.34c-68.827 0-124.822 55.995-124.822 124.822v229.925c0 5.523 4.478 10 10 10h229.645c5.522 0 10-4.477 10-10v-229.925c0-68.827-55.996-124.822-124.823-124.822zm-104.822 299.909c0-9.914 8.065-17.979 17.979-17.979h44.305l34.51 46.47c1.887 2.54 4.864 4.038 8.028 4.038s6.142-1.497 8.028-4.038l34.51-46.47h44.302c9.915 0 17.982 8.067 17.982 17.982v44.835h-209.644zm97.899-62.335c-1.577-2.378-4.046-3.962-6.87-4.366-6.227-1.153-49.958-17.887-49.958-52.717 0-.716-.077-1.43-.23-2.13l-1.319-6.052c-1.002-4.594-5.068-7.87-9.771-7.87h-2.676c-1.898 0-3.132-.984-3.698-1.571-.566-.586-1.504-1.854-1.436-3.766.097-2.725 2.563-4.941 5.497-4.941h.939c5.522 0 9.999-4.477 10-9.999l.002-17.858h74.697c3.23 0 6.262-1.561 8.139-4.189l13.755-19.266 13.021 19.089c1.862 2.732 4.955 4.365 8.261 4.365h14.493l.003 17.859c.001 5.522 4.478 9.999 10 9.999h1.455c2.935 0 5.401 2.217 5.498 4.941.068 1.911-.871 3.179-1.437 3.766s-1.8 1.571-3.698 1.571h-3.191c-4.702 0-8.769 3.276-9.771 7.87l-1.319 6.052c-.152.7-.23 1.413-.23 2.13 0 14.805-7.472 27.864-22.206 38.816-11.972 8.898-25.099 13.414-27.659 13.886-2.824.404-5.341 1.995-6.917 4.373-1.577 2.378-2.063 5.315-1.336 8.074l4.292 16.29h-19.335l4.291-16.29c.729-2.758.291-5.688-1.286-8.066zm24.55 44.356-17.627 23.735-17.627-23.735zm87.196-15.466c-5.356-2.891-11.481-4.534-17.982-4.534h-56.748l-3.21-12.184c7.272-2.853 16.685-7.517 25.43-13.909 19.162-14.008 29.769-31.918 30.835-51.973 4.801-1.042 9.185-3.477 12.688-7.107 4.78-4.953 7.278-11.475 7.033-18.365-.378-10.637-7.32-19.469-16.941-22.804l-.003-19.286c-.001-5.522-4.478-9.999-10-9.999h-19.209l-18.118-26.561c-1.841-2.7-4.886-4.33-8.153-4.365-3.308-.031-6.348 1.53-8.246 4.189l-19.09 26.737h-79.549c-5.522 0-9.999 4.477-10 9.999l-.002 19.471c-9.353 3.468-16.055 12.174-16.426 22.619-.245 6.889 2.253 13.411 7.032 18.364 3.376 3.498 7.571 5.887 12.169 6.989 1.034 20.018 11.64 37.943 30.828 52.007 8.771 6.429 18.18 11.113 25.444 13.979l-3.214 12.199h-56.235c-6.5 0-12.624 1.643-17.979 4.533v-141.64c0-57.799 47.023-104.822 104.822-104.822s104.822 47.023 104.822 104.822v141.641z"/>
    <path fill="currentColor" d="m333.227 462.34h-229.645c-5.522 0-10-4.477-10-10s4.478-10 10-10h229.645c5.522 0 10 4.477 10 10s-4.478 10-10 10z"/>
</svg>