<svg version="1.2" xmlns="http://www.w3.org/2000/svg" width="682.667" height="682.667" viewBox="0 0 512.000000 512.000000">
    <path d="M185.8.4c-.1.2-3.1.6-6.5.9-34.8 3.3-73.8 19.4-102.8 42.5-12.4 9.9-29 27.1-38.3 39.7-2.7 3.7-11.6 18.2-14.7 24-6.5 12.2-16 37.3-18 47.5-4.5 22.8-5 27.2-5 46 0 17.2.7 25.4 3 38 5.5 29.2 18.2 58.4 35.9 82.5 7.4 10.2 8.1 10.9 19.6 22.6 17.2 17.4 32 27.9 54.5 38.9 30.7 15 56.1 20.6 91.5 20.4 44.5-.3 88.2-16 123.4-44.3l6.8-5.5 2 2.4c1.1 1.4 3.7 4.5 5.8 7 2.1 2.5 13.8 16.4 26 31 12.2 14.6 29.6 35.3 38.6 46.1 21 25 28.2 30.3 44.4 32.6 25.8 3.7 49.7-11.3 57.6-36.1 2.9-9.1 2.7-23.3-.4-31.9-3.8-10.5-8.8-17.2-20.2-26.7-3.6-3-6.7-5.7-7-6-.3-.3-4.5-3.9-9.5-8-4.9-4.1-9.2-7.7-9.5-8-.3-.3-8.4-7-18-15s-17.7-14.7-18-15c-.3-.3-9.8-8.3-21.2-17.9-11.5-9.5-21-17.7-21.3-18.1-.3-.5.5-3.3 1.9-6.2 6.8-15.1 12.9-36.1 15.1-52.3 1.4-9.8 1.7-13.6 2-25 .8-33.8-5.5-62.3-20.5-93-10.8-22.2-22-37.9-38.9-54.5-18-17.7-31.3-27.2-53.1-38.1-16.7-8.3-39.6-15.6-57.5-18.3-2.2-.4-5.6-.9-7.5-1.2-3.8-.6-39.6-1.4-40.2-1zm-41.2 112.1c4.2 2 5.7 3.5 7.4 7 2.2 4.5 2.5 11.1.9 16.5-.5 1.4-1 3.8-1.3 5.5-.6 4.3-6.4 32.3-8.1 39.8-.8 3.4-1.7 8-2.1 10.1-.6 4.4-1 6.1-1.8 9.6-.3 1.4-.8 3.6-1 5-.5 2.9-2.3 11.3-3.1 15-.3 1.4-1 5-1.6 8-1.8 9.2-5.5 14-12.5 16.5-9.5 3.2-20.8-3.5-22.1-13.2-.3-2.1 0-6.5.7-9.8.6-3.3 1.3-7.1 1.6-8.5.3-1.4.7-3.2.9-4 .2-.8.7-3.1 1-5 .3-1.9 1.2-6.2 2-9.5.7-3.3 1.6-7.7 1.9-9.7.3-2.1 1.1-5.9 1.7-8.5.6-2.7 1.3-5.8 1.5-7.1.8-4.2 1.3-6.8 4.4-21.7 1.7-8.3 3.2-15.9 3.4-17 2.1-10.1 3-12.5 5.9-15.5 6.1-6.3 12.4-7.4 20.3-3.5zm-51.9 2c2.2 1.2 4.8 3.9 6.2 6.3 2.3 4.4 2.6 8.4 1.6 22.2-.1 2.5-.6 9.7-1 16-.3 6.3-.8 13.5-1 16-.2 2.5-.6 9.9-1 16.5s-.8 14.7-1.1 17.9c-.2 3.3-.6 10-.9 15-.7 10.9-1 12.1-4.3 16.5-6.5 8.7-20.2 8.7-27 0-2.1-2.6-4-8.4-3.7-10.9.1-.8.6-7.6.9-15 .4-7.4.9-15.5 1.1-18 .2-2.5.6-9.7 1-16 .8-12.1.8-12.7 1.9-31 1.7-28.2 2.4-31 9.8-35.4 5.3-3.2 12-3.3 17.5-.1zm192.3 20c19 5 31.9 17 41.8 38.6 9.7 21.1 14.3 35.5 14.3 44.3 0 14.1-4.7 33.7-10.2 41.9-8.8 13.3-31.3 26.4-54.5 31.7-23.8 5.4-26.9 7.1-36.7 19.3-2.7 3.3-5.9 6.8-7.1 7.8-10.2 8-34.2-4.7-48.3-25.6-11.8-17.6-16.5-33.5-12.9-44.3.9-2.7 2-6.3 2.3-7.9 1.1-5.6.5-22-1.2-31.3-2.4-13.5-2.5-16.5-.9-22.9 4.2-16.1 19.8-28.1 52.4-40.6 25.3-9.6 35.8-12.4 47-12.4 4.7-.1 11 .6 14 1.4zm170.5 265.9c8.2 5.6 14.7 10.7 15.8 12.4 3.4 5.9 1.7 14.7-3.9 19.1-5.1 4-13.8 3.7-18.4-.8-3.7-3.5-19.1-27.4-19.4-29.9-.3-3.3 2-7.7 4.8-9.1 4.5-2.1 7.1-1.1 21.1 8.3z"/>
    <path d="M242.5 189.2c-3.3 1.1-7.3 2.9-9 4.1-18.9 13-21.5 39.4-5.5 55.5 5 5 13 9.1 19.7 10.1 21.5 3.1 41.4-13.5 41.4-34.9 0-7.4-.7-10.6-3.6-16.5-7.9-15.9-26.3-23.7-43-18.3zm-6.7 40.7c3.3 7.4 10 12 17.5 12.1 2.2 0 3.7.5 3.8 1.2 0 .7.2 2.1.4 3 .3 1.4-.5 1.6-5.6 1.3-7.2-.5-12.6-3.2-17.1-8.4-3.9-4.6-6.3-10.7-4.4-11.5 2.6-1.1 4.2-.4 5.4 2.3z"/>
</svg>